<mxfile host="app.diagrams.net" agent="Mozilla/5.0 (Macintosh; Intel Mac OS X 10_15_7) AppleWebKit/537.36 (KHTML, like Gecko) Chrome/129.0.0.0 Safari/537.36" version="24.7.16" pages="2">
  <diagram name="Network" id="GTnO9cXXo5wAcO9DmnU6">
    <mxGraphModel dx="974" dy="1419" grid="1" gridSize="10" guides="1" tooltips="1" connect="1" arrows="1" fold="1" page="1" pageScale="1" pageWidth="827" pageHeight="1169" math="0" shadow="0">
      <root>
        <mxCell id="0" />
        <mxCell id="1" parent="0" />
        <mxCell id="Yy3FOWtkJZIoh8TKrqLI-21" value="CPC" style="rounded=1;whiteSpace=wrap;html=1;" vertex="1" parent="1">
          <mxGeometry x="750" y="80" width="60" height="40" as="geometry" />
        </mxCell>
        <mxCell id="Yy3FOWtkJZIoh8TKrqLI-54" value="" style="endArrow=classic;startArrow=classic;html=1;rounded=0;" edge="1" parent="1" source="Yy3FOWtkJZIoh8TKrqLI-8" target="Yy3FOWtkJZIoh8TKrqLI-44">
          <mxGeometry width="50" height="50" relative="1" as="geometry">
            <mxPoint x="590" y="250" as="sourcePoint" />
            <mxPoint x="640" y="200" as="targetPoint" />
          </mxGeometry>
        </mxCell>
        <mxCell id="Yy3FOWtkJZIoh8TKrqLI-58" value="" style="endArrow=classic;startArrow=classic;html=1;rounded=0;" edge="1" parent="1" source="Yy3FOWtkJZIoh8TKrqLI-44" target="Yy3FOWtkJZIoh8TKrqLI-27">
          <mxGeometry width="50" height="50" relative="1" as="geometry">
            <mxPoint x="600" y="260" as="sourcePoint" />
            <mxPoint x="650" y="210" as="targetPoint" />
          </mxGeometry>
        </mxCell>
        <mxCell id="Yy3FOWtkJZIoh8TKrqLI-59" value="" style="endArrow=classic;startArrow=classic;html=1;rounded=0;" edge="1" parent="1" source="Yy3FOWtkJZIoh8TKrqLI-15" target="Yy3FOWtkJZIoh8TKrqLI-44">
          <mxGeometry width="50" height="50" relative="1" as="geometry">
            <mxPoint x="600" y="260" as="sourcePoint" />
            <mxPoint x="650" y="210" as="targetPoint" />
          </mxGeometry>
        </mxCell>
        <mxCell id="Yy3FOWtkJZIoh8TKrqLI-60" value="" style="endArrow=classic;startArrow=classic;html=1;rounded=0;" edge="1" parent="1" source="Yy3FOWtkJZIoh8TKrqLI-41" target="Yy3FOWtkJZIoh8TKrqLI-44">
          <mxGeometry width="50" height="50" relative="1" as="geometry">
            <mxPoint x="600" y="260" as="sourcePoint" />
            <mxPoint x="650" y="210" as="targetPoint" />
          </mxGeometry>
        </mxCell>
        <mxCell id="Yy3FOWtkJZIoh8TKrqLI-27" value="CPC" style="rounded=1;whiteSpace=wrap;html=1;" vertex="1" parent="1">
          <mxGeometry x="880" y="80" width="60" height="40" as="geometry" />
        </mxCell>
        <mxCell id="Yy3FOWtkJZIoh8TKrqLI-44" value="CPS" style="rounded=1;whiteSpace=wrap;html=1;" vertex="1" parent="1">
          <mxGeometry x="750" y="220" width="60" height="40" as="geometry" />
        </mxCell>
        <mxCell id="Yy3FOWtkJZIoh8TKrqLI-8" value="CPC" style="rounded=1;whiteSpace=wrap;html=1;" vertex="1" parent="1">
          <mxGeometry x="620" y="80" width="60" height="40" as="geometry" />
        </mxCell>
        <mxCell id="Yy3FOWtkJZIoh8TKrqLI-15" value="CPC" style="rounded=1;whiteSpace=wrap;html=1;" vertex="1" parent="1">
          <mxGeometry x="620" y="360" width="60" height="40" as="geometry" />
        </mxCell>
        <mxCell id="Yy3FOWtkJZIoh8TKrqLI-41" value="CPC" style="rounded=1;whiteSpace=wrap;html=1;" vertex="1" parent="1">
          <mxGeometry x="880" y="360" width="60" height="40" as="geometry" />
        </mxCell>
        <mxCell id="h4o0shpko2d1z4qH7dPZ-2" value="CPC" style="rounded=1;whiteSpace=wrap;html=1;" vertex="1" parent="1">
          <mxGeometry x="750" y="360" width="60" height="40" as="geometry" />
        </mxCell>
        <mxCell id="h4o0shpko2d1z4qH7dPZ-3" value="" style="endArrow=classic;startArrow=classic;html=1;rounded=0;" edge="1" parent="1" source="h4o0shpko2d1z4qH7dPZ-2" target="Yy3FOWtkJZIoh8TKrqLI-44">
          <mxGeometry width="50" height="50" relative="1" as="geometry">
            <mxPoint x="600" y="330" as="sourcePoint" />
            <mxPoint x="650" y="280" as="targetPoint" />
          </mxGeometry>
        </mxCell>
        <mxCell id="h4o0shpko2d1z4qH7dPZ-5" value="Hospital" style="text;html=1;align=center;verticalAlign=middle;whiteSpace=wrap;rounded=0;fontStyle=1" vertex="1" parent="1">
          <mxGeometry x="600" y="50" width="100" height="30" as="geometry" />
        </mxCell>
        <mxCell id="h4o0shpko2d1z4qH7dPZ-6" value="Hospital" style="text;html=1;align=center;verticalAlign=middle;whiteSpace=wrap;rounded=0;fontStyle=1" vertex="1" parent="1">
          <mxGeometry x="730" y="400" width="100" height="30" as="geometry" />
        </mxCell>
        <mxCell id="h4o0shpko2d1z4qH7dPZ-7" value="General Practitioner" style="text;html=1;align=center;verticalAlign=middle;whiteSpace=wrap;rounded=0;fontStyle=1" vertex="1" parent="1">
          <mxGeometry x="860" y="40" width="100" height="30" as="geometry" />
        </mxCell>
        <mxCell id="h4o0shpko2d1z4qH7dPZ-8" value="Home Care" style="text;html=1;align=center;verticalAlign=middle;whiteSpace=wrap;rounded=0;fontStyle=1" vertex="1" parent="1">
          <mxGeometry x="600" y="400" width="100" height="30" as="geometry" />
        </mxCell>
        <mxCell id="h4o0shpko2d1z4qH7dPZ-9" value="Medical Service Center" style="text;html=1;align=center;verticalAlign=middle;whiteSpace=wrap;rounded=0;fontStyle=1" vertex="1" parent="1">
          <mxGeometry x="860" y="410" width="100" height="30" as="geometry" />
        </mxCell>
        <mxCell id="h4o0shpko2d1z4qH7dPZ-10" value="Medical Service Center" style="text;html=1;align=center;verticalAlign=middle;whiteSpace=wrap;rounded=0;fontStyle=1" vertex="1" parent="1">
          <mxGeometry x="730" y="40" width="100" height="30" as="geometry" />
        </mxCell>
        <mxCell id="h4o0shpko2d1z4qH7dPZ-11" value="" style="endArrow=classic;startArrow=classic;html=1;rounded=0;" edge="1" parent="1" source="Yy3FOWtkJZIoh8TKrqLI-44" target="Yy3FOWtkJZIoh8TKrqLI-21">
          <mxGeometry width="50" height="50" relative="1" as="geometry">
            <mxPoint x="600" y="330" as="sourcePoint" />
            <mxPoint x="650" y="280" as="targetPoint" />
          </mxGeometry>
        </mxCell>
        <mxCell id="h4o0shpko2d1z4qH7dPZ-12" value="CPC" style="rounded=1;whiteSpace=wrap;html=1;" vertex="1" parent="1">
          <mxGeometry x="880" y="220" width="60" height="40" as="geometry" />
        </mxCell>
        <mxCell id="h4o0shpko2d1z4qH7dPZ-13" value="CPC" style="rounded=1;whiteSpace=wrap;html=1;" vertex="1" parent="1">
          <mxGeometry x="620" y="220" width="60" height="40" as="geometry" />
        </mxCell>
        <mxCell id="h4o0shpko2d1z4qH7dPZ-14" value="General Practitioner" style="text;html=1;align=center;verticalAlign=middle;whiteSpace=wrap;rounded=0;fontStyle=1" vertex="1" parent="1">
          <mxGeometry x="930" y="225" width="100" height="30" as="geometry" />
        </mxCell>
        <mxCell id="h4o0shpko2d1z4qH7dPZ-15" value="General Practitioner" style="text;html=1;align=center;verticalAlign=middle;whiteSpace=wrap;rounded=0;fontStyle=1" vertex="1" parent="1">
          <mxGeometry x="530" y="225" width="100" height="30" as="geometry" />
        </mxCell>
        <mxCell id="h4o0shpko2d1z4qH7dPZ-16" value="" style="endArrow=classic;startArrow=classic;html=1;rounded=0;" edge="1" parent="1" source="h4o0shpko2d1z4qH7dPZ-13" target="Yy3FOWtkJZIoh8TKrqLI-44">
          <mxGeometry width="50" height="50" relative="1" as="geometry">
            <mxPoint x="600" y="330" as="sourcePoint" />
            <mxPoint x="650" y="280" as="targetPoint" />
          </mxGeometry>
        </mxCell>
        <mxCell id="h4o0shpko2d1z4qH7dPZ-17" value="" style="endArrow=classic;startArrow=classic;html=1;rounded=0;" edge="1" parent="1" source="Yy3FOWtkJZIoh8TKrqLI-44" target="h4o0shpko2d1z4qH7dPZ-12">
          <mxGeometry width="50" height="50" relative="1" as="geometry">
            <mxPoint x="600" y="330" as="sourcePoint" />
            <mxPoint x="650" y="280" as="targetPoint" />
          </mxGeometry>
        </mxCell>
      </root>
    </mxGraphModel>
  </diagram>
  <diagram id="6IAVoZsigsfEeod-0MnW" name="CPC+CPS">
    <mxGraphModel dx="779" dy="1135" grid="1" gridSize="10" guides="1" tooltips="1" connect="1" arrows="1" fold="1" page="1" pageScale="1" pageWidth="827" pageHeight="1169" math="0" shadow="0">
      <root>
        <mxCell id="0" />
        <mxCell id="1" parent="0" />
        <mxCell id="ZCailMSM_ZhTBmSRtzI--1" value="" style="group" parent="1" vertex="1" connectable="0">
          <mxGeometry x="124" y="510" width="580" height="350" as="geometry" />
        </mxCell>
        <mxCell id="ZCailMSM_ZhTBmSRtzI--2" value="" style="rounded=1;whiteSpace=wrap;html=1;" parent="ZCailMSM_ZhTBmSRtzI--1" vertex="1">
          <mxGeometry width="360" height="320" as="geometry" />
        </mxCell>
        <mxCell id="ZCailMSM_ZhTBmSRtzI--3" value="EHR" style="shape=cylinder3;whiteSpace=wrap;html=1;boundedLbl=1;backgroundOutline=1;size=15;" parent="ZCailMSM_ZhTBmSRtzI--1" vertex="1">
          <mxGeometry x="20" y="120" width="60" height="80" as="geometry" />
        </mxCell>
        <mxCell id="ZCailMSM_ZhTBmSRtzI--4" value="" style="rounded=1;whiteSpace=wrap;html=1;" parent="ZCailMSM_ZhTBmSRtzI--1" vertex="1">
          <mxGeometry x="150" y="40" width="200" height="240" as="geometry" />
        </mxCell>
        <mxCell id="ZCailMSM_ZhTBmSRtzI--5" value="CPC" style="rounded=1;whiteSpace=wrap;html=1;" parent="ZCailMSM_ZhTBmSRtzI--1" vertex="1">
          <mxGeometry x="320" y="140" width="60" height="40" as="geometry" />
        </mxCell>
        <mxCell id="ZCailMSM_ZhTBmSRtzI--6" value="CPS" style="rounded=1;whiteSpace=wrap;html=1;" parent="ZCailMSM_ZhTBmSRtzI--1" vertex="1">
          <mxGeometry x="320" y="90" width="60" height="40" as="geometry" />
        </mxCell>
        <mxCell id="ZCailMSM_ZhTBmSRtzI--7" value="Care&lt;div&gt;Plans&lt;/div&gt;" style="shape=cylinder3;whiteSpace=wrap;html=1;boundedLbl=1;backgroundOutline=1;size=15;fontSize=11;" parent="ZCailMSM_ZhTBmSRtzI--1" vertex="1">
          <mxGeometry x="160" y="70" width="60" height="80" as="geometry" />
        </mxCell>
        <mxCell id="ZCailMSM_ZhTBmSRtzI--8" value="" style="endArrow=classic;startArrow=classic;html=1;rounded=0;" parent="ZCailMSM_ZhTBmSRtzI--1" source="ZCailMSM_ZhTBmSRtzI--7" target="ZCailMSM_ZhTBmSRtzI--6" edge="1">
          <mxGeometry width="50" height="50" relative="1" as="geometry">
            <mxPoint x="40" y="260" as="sourcePoint" />
            <mxPoint x="90" y="210" as="targetPoint" />
            <Array as="points">
              <mxPoint x="266" y="110" />
            </Array>
          </mxGeometry>
        </mxCell>
        <mxCell id="ZCailMSM_ZhTBmSRtzI--9" value="" style="endArrow=classic;startArrow=classic;html=1;rounded=0;" parent="ZCailMSM_ZhTBmSRtzI--1" source="ZCailMSM_ZhTBmSRtzI--3" target="ZCailMSM_ZhTBmSRtzI--5" edge="1">
          <mxGeometry width="50" height="50" relative="1" as="geometry">
            <mxPoint x="220" y="90" as="sourcePoint" />
            <mxPoint x="270" y="40" as="targetPoint" />
          </mxGeometry>
        </mxCell>
        <mxCell id="ZCailMSM_ZhTBmSRtzI--10" value="Nuts" style="rounded=1;whiteSpace=wrap;html=1;dashed=1;" parent="ZCailMSM_ZhTBmSRtzI--1" vertex="1">
          <mxGeometry x="320" y="190" width="60" height="40" as="geometry" />
        </mxCell>
        <mxCell id="ZCailMSM_ZhTBmSRtzI--11" value="&lt;font style=&quot;font-size: 11px;&quot;&gt;Verifiable Credentials&lt;/font&gt;" style="shape=cylinder3;whiteSpace=wrap;html=1;boundedLbl=1;backgroundOutline=1;size=15;dashed=1;" parent="ZCailMSM_ZhTBmSRtzI--1" vertex="1">
          <mxGeometry x="160" y="170" width="60" height="80" as="geometry" />
        </mxCell>
        <mxCell id="ZCailMSM_ZhTBmSRtzI--12" value="" style="endArrow=classic;startArrow=classic;html=1;rounded=0;dashed=1;" parent="ZCailMSM_ZhTBmSRtzI--1" source="ZCailMSM_ZhTBmSRtzI--11" target="ZCailMSM_ZhTBmSRtzI--10" edge="1">
          <mxGeometry width="50" height="50" relative="1" as="geometry">
            <mxPoint x="220" y="90" as="sourcePoint" />
            <mxPoint x="270" y="40" as="targetPoint" />
          </mxGeometry>
        </mxCell>
        <mxCell id="ZCailMSM_ZhTBmSRtzI--13" value="&lt;b&gt;ORCA&lt;/b&gt;" style="text;html=1;align=center;verticalAlign=middle;whiteSpace=wrap;rounded=0;" parent="ZCailMSM_ZhTBmSRtzI--1" vertex="1">
          <mxGeometry x="220" y="250" width="60" height="30" as="geometry" />
        </mxCell>
        <mxCell id="ZCailMSM_ZhTBmSRtzI--14" value="&lt;b&gt;Health Care Organization&lt;/b&gt;" style="text;html=1;align=center;verticalAlign=middle;whiteSpace=wrap;rounded=0;" parent="ZCailMSM_ZhTBmSRtzI--1" vertex="1">
          <mxGeometry x="85" y="320" width="190" height="30" as="geometry" />
        </mxCell>
        <mxCell id="ZCailMSM_ZhTBmSRtzI--15" value="The Internet" style="ellipse;shape=cloud;whiteSpace=wrap;html=1;" parent="ZCailMSM_ZhTBmSRtzI--1" vertex="1">
          <mxGeometry x="460" y="120" width="120" height="80" as="geometry" />
        </mxCell>
        <mxCell id="ZCailMSM_ZhTBmSRtzI--16" value="" style="endArrow=classic;startArrow=classic;html=1;rounded=0;" parent="ZCailMSM_ZhTBmSRtzI--1" source="ZCailMSM_ZhTBmSRtzI--6" target="ZCailMSM_ZhTBmSRtzI--15" edge="1">
          <mxGeometry width="50" height="50" relative="1" as="geometry">
            <mxPoint x="380" y="-130" as="sourcePoint" />
            <mxPoint x="430" y="-180" as="targetPoint" />
          </mxGeometry>
        </mxCell>
        <mxCell id="ZCailMSM_ZhTBmSRtzI--17" value="" style="endArrow=classic;startArrow=classic;html=1;rounded=0;dashed=1;" parent="ZCailMSM_ZhTBmSRtzI--1" source="ZCailMSM_ZhTBmSRtzI--10" target="ZCailMSM_ZhTBmSRtzI--15" edge="1">
          <mxGeometry width="50" height="50" relative="1" as="geometry">
            <mxPoint x="440" y="280" as="sourcePoint" />
            <mxPoint x="490" y="230" as="targetPoint" />
          </mxGeometry>
        </mxCell>
        <mxCell id="ZCailMSM_ZhTBmSRtzI--18" value="" style="endArrow=classic;startArrow=classic;html=1;rounded=0;" parent="ZCailMSM_ZhTBmSRtzI--1" source="ZCailMSM_ZhTBmSRtzI--5" target="ZCailMSM_ZhTBmSRtzI--15" edge="1">
          <mxGeometry width="50" height="50" relative="1" as="geometry">
            <mxPoint x="410" y="230" as="sourcePoint" />
            <mxPoint x="460" y="180" as="targetPoint" />
          </mxGeometry>
        </mxCell>
      </root>
    </mxGraphModel>
  </diagram>
</mxfile>
